<svg width="304" height="92" viewBox="0 0 304 92" fill="none" xmlns="http://www.w3.org/2000/svg">
<path d="M0 82.359C0 78.2565 3.35209 75.2821 7.00891 74.1539V69.436C3.7584 68.5129 1.21894 66.2565 1.21894 62.5642C1.21894 57.0257 5.1805 54.359 9.54837 52.9231V48.3078C5.99313 45.7437 3.7584 42.8719 3.7584 37.6411C3.7584 26.8719 13.002 19.1796 24.8867 19.1796C33.2161 19.1796 40.8345 22.4616 43.4756 29.9488H47.8434C48.6561 22.4616 50.9924 20.718 55.8681 20.718H58.5092V31.7949H52.9224C49.7734 31.7949 48.9608 32.5129 48.3513 37.7437L48.2498 38.6667C47.0308 49.7437 38.1935 56.5129 26.3088 56.5129C22.5504 56.5129 18.792 56.1026 15.7447 54.7693C12.9005 55.5898 11.8847 56.718 11.8847 58.359C11.8847 60.6155 14.0178 60.6155 16.9636 60.6155H38.803C49.6719 60.6155 56.4776 67.7949 56.4776 76.1026C56.4776 86.4616 48.7576 92.0001 38.803 92.0001H12.6973C3.04735 92.0001 0 87.2821 0 82.359ZM35.9588 81.436C40.733 81.436 42.2566 79.4872 42.2566 76.6155C42.2566 74.2565 40.733 72.0001 35.9588 72.0001H13.7131C12.4941 72.718 11.072 74.5642 11.072 76.6155C11.072 79.8975 13.4084 81.436 16.151 81.436H35.9588ZM35.1461 38.2565C35.1461 32.9232 31.5909 29.0257 26.2072 29.0257C20.8236 29.0257 17.2683 32.9232 17.2683 38.2565C17.2683 43.4873 20.8236 46.9744 26.2072 46.9744C31.5909 46.9744 35.1461 43.4873 35.1461 38.2565Z" fill="white"/>
<path d="M60.7439 46.2565C60.7439 30.1539 71.7144 19.1796 86.4432 19.1796C103.508 19.1796 112.447 32.718 111.025 49.8462H75.168C75.5743 58.8719 80.3485 62.5642 86.5448 62.5642C93.0458 62.5642 96.1948 58.4616 98.3279 53.6411L111.228 58.6667C108.384 65.2308 101.985 73.6411 86.5448 73.6411C70.9017 73.6411 60.7439 63.077 60.7439 46.2565ZM96.8042 39.5898C96.1948 33.2308 92.5379 29.6411 86.4432 29.6411C80.6533 29.6411 76.6917 33.1283 75.6759 39.5898H96.8042Z" fill="white"/>
<path d="M121.996 20.718H134.998C134.896 24.1026 132.763 28.5129 130.02 32.5129H136.318C138.654 25.2308 143.733 19.1796 151.86 19.1796C163.033 19.1796 169.128 26.6667 169.128 38.0514V72.0001H154.704V40.8206C154.704 34.0514 151.555 31.1796 146.578 31.1796C136.521 31.1796 136.42 42.2565 136.42 47.6924V72.0001H121.996V20.718Z" fill="white"/>
<path d="M182.029 0H197.367V13.7436H182.029V0ZM182.536 20.7179H196.961V72H182.536V20.7179Z" fill="white"/>
<path d="M207.423 46.2565C207.423 30.1539 218.394 19.1796 233.122 19.1796C250.188 19.1796 259.127 32.718 257.704 49.8462H221.847C222.254 58.8719 227.028 62.5642 233.224 62.5642C239.725 62.5642 242.874 58.4616 245.007 53.6411L257.908 58.6667C255.063 65.2308 248.664 73.6411 233.224 73.6411C217.581 73.6411 207.423 63.077 207.423 46.2565ZM243.475 39.5898C242.866 33.2308 239.209 29.6411 233.114 29.6411C227.324 29.6411 223.362 33.1283 222.347 39.5898H243.475Z" fill="white"/>
<path d="M273.144 58.5659V31.7967H262.479V20.7198H273.144V4.61719H287.568V20.7198H300.774V31.7967H287.568V55.8992C287.568 58.9762 288.889 60.4121 292.038 60.4121H303.008V72.0018H286.045C277.817 72.0018 273.144 66.5659 273.144 58.5659Z" fill="white"/>
</svg>
