<svg id="Layer_1" data-name="Layer 1" xmlns="http://www.w3.org/2000/svg" viewBox="0 0 941 980">
    <path d="M163.2,10c-62.8,1.4-121,53.4-129.3,115.6L31,342a178.1,178.1,0,0,0-1.5,23.4C29.5,425,55.3,499,92.2,540.2L461.5,952.1c41.9,46.8,114.5,50.8,161.3,9L932.6,684.3a114.3,114.3,0,0,0,8.9-161.1L572.2,111.3C530.3,64.5,444.6,27.4,381.8,28.7ZM58.5,151a.5.5,0,0,1,1,0A.5.5,0,0,1,58.5,151Zm462.7,5.8,369.3,412a45.88,45.88,0,0,1-3.6,64.4L577.1,910c-18.4,16.5-48,14.9-64.5-3.5L143.3,494.6c-24.9-27.9-45.2-85.8-45.2-129.2A106.92,106.92,0,0,1,99,351l3-216.5c3.8-28.8,33.7-55.5,62.8-56.1L383.3,97C425.8,96.1,492.9,125.1,521.2,156.8Z" transform="translate(-29.5 -10)"/>
    <path d="M173.1,288.6c0,66.7,54.2,120.7,121,120.7S415,355.2,415,288.6A120.84,120.84,0,0,0,294.1,167.8C227.2,167.9,173.1,221.9,173.1,288.6Zm173.2,0A52.35,52.35,0,1,1,294,236.3,52.41,52.41,0,0,1,346.3,288.6Z" transform="translate(-29.5 -10)"/>
</svg>