<svg xmlns="http://www.w3.org/2000/svg" width="280.368" height="444.818" viewBox="0 0 280.368 444.818">
  <g id="chevron-arrow-down--bl" transform="translate(0 444.818) rotate(-90)">
    <path id="Path_1" data-name="Path 1" d="M434.252,114.2,412.843,92.787a36.56,36.56,0,0,0-25.975-10.561,34.982,34.982,0,0,0-25.7,10.561L222.41,231.549,83.653,92.791a34.98,34.98,0,0,0-25.7-10.561A36.563,36.563,0,0,0,31.977,92.791L10.849,114.207A35.433,35.433,0,0,0,0,140.188Q0,155.6,10.848,165.881L196.712,351.746q10.282,10.845,25.7,10.848a35.433,35.433,0,0,0,25.977-10.848L434.251,165.881a34.978,34.978,0,0,0,10.567-25.693A36.567,36.567,0,0,0,434.252,114.2Z" transform="translate(0 -82.226)"/>
  </g>
</svg>
