<?xml version="1.0" encoding="utf-8"?>
<!-- Generator: Adobe Illustrator 25.0.1, SVG Export Plug-In . SVG Version: 6.00 Build 0)  -->
<svg version="1.1" id="Capa_1" xmlns="http://www.w3.org/2000/svg" xmlns:xlink="http://www.w3.org/1999/xlink" x="0px" y="0px"
	 viewBox="0 0 909.5 512" style="enable-background:new 0 0 909.5 512;" xml:space="preserve">
<style type="text/css">
	.st0{fill:#F9F4F4;}
</style>
<g>
	<g>
		<g>
			<path class="st0" d="M50.2,484.4c-3.3-1.2-5.3-4.5-5.1-7.2c0-0.4-0.3-0.8-0.6-1.1c-0.3-0.3-0.8-0.4-1.3-0.3
				c-5,0.7-9.6-2.9-10.1-8.1c0-0.5-0.3-0.9-0.7-1.1c-0.4-0.2-0.9-0.3-1.3-0.1c-4.1,1.5-7.9-1.2-9.4-4.7c-0.3-0.7-1-1-1.7-0.9
				c-11.5,2.6-20,13.7-20,25.6C0,500.5,11.5,512,25.6,512s25.6-11.5,25.6-25.6C51.2,485.5,51.2,484.8,50.2,484.4z M10.5,488
				c-0.8,0-1.5-0.7-1.5-1.5c0-0.8,0.7-1.5,1.5-1.5s1.5,0.7,1.5,1.5C12,487.3,11.4,488,10.5,488z M16.6,499.9c-2.5,0-4.5-2-4.5-4.5
				c0-2.5,2-4.5,4.5-4.5s4.5,2,4.5,4.5C21.1,497.9,19.1,499.9,16.6,499.9z M18.1,481.9c-1.7,0-3-1.3-3-3s1.3-3,3-3s3,1.3,3,3
				S19.8,481.9,18.1,481.9z M30.1,502.9c-1.7,0-3-1.3-3-3c0-1.7,1.3-3,3-3s3,1.3,3,3C33.1,501.6,31.8,502.9,30.1,502.9z M31.6,490.9
				c-2.5,0-4.5-2-4.5-4.5c0-2.5,2-4.5,4.5-4.5s4.5,2,4.5,4.5C36.1,488.9,34.1,490.9,31.6,490.9z M40.5,494c-0.8,0-1.5-0.7-1.5-1.5
				c0-0.8,0.7-1.5,1.5-1.5s1.5,0.7,1.5,1.5C42,493.3,41.4,494,40.5,494z"/>
		</g>
	</g>
	<circle cx="16.6" cy="495.4" r="4.5"/>
	<circle cx="31.6" cy="486.4" r="4.5"/>
	<ellipse cx="10.5" cy="486.5" rx="1.5" ry="1.6"/>
	<ellipse cx="30.1" cy="499.9" rx="3.1" ry="3"/>
	<ellipse cx="18.1" cy="478.9" rx="3.1" ry="3"/>
	<ellipse cx="40.5" cy="492.5" rx="1.5" ry="1.6"/>
</g>
<g>
	<g>
		<g>
			<path class="st0" d="M51.5,433.2c-3.3-1.2-5.3-4.5-5.1-7.2c0-0.4-0.3-0.8-0.6-1.1c-0.3-0.3-0.8-0.4-1.3-0.3
				c-5,0.7-9.6-2.9-10.1-8.1c0-0.5-0.3-0.9-0.7-1.1c-0.4-0.2-0.9-0.3-1.3-0.1c-4.1,1.5-7.9-1.2-9.4-4.7c-0.3-0.7-1-1-1.7-0.9
				c-11.5,2.6-20,13.7-20,25.6c0,14.1,11.5,25.6,25.6,25.6s25.6-11.5,25.6-25.6C52.5,434.3,52.5,433.6,51.5,433.2z M11.9,436.8
				c-0.8,0-1.5-0.7-1.5-1.5c0-0.8,0.7-1.5,1.5-1.5s1.5,0.7,1.5,1.5C13.4,436.1,12.7,436.8,11.9,436.8z M18,448.7
				c-2.5,0-4.5-2-4.5-4.5c0-2.5,2-4.5,4.5-4.5s4.5,2,4.5,4.5C22.5,446.7,20.5,448.7,18,448.7z M19.5,430.7c-1.7,0-3-1.3-3-3
				s1.3-3,3-3c1.7,0,3,1.3,3,3S21.1,430.7,19.5,430.7z M31.5,451.7c-1.7,0-3-1.3-3-3s1.3-3,3-3c1.7,0,3,1.3,3,3
				S33.1,451.7,31.5,451.7z M33,439.7c-2.5,0-4.5-2-4.5-4.5c0-2.5,2-4.5,4.5-4.5s4.5,2,4.5,4.5C37.5,437.7,35.5,439.7,33,439.7z
				 M41.9,442.8c-0.8,0-1.5-0.7-1.5-1.5c0-0.8,0.7-1.5,1.5-1.5s1.5,0.7,1.5,1.5C43.4,442.1,42.7,442.8,41.9,442.8z"/>
		</g>
	</g>
	<circle cx="18" cy="444.2" r="4.5"/>
	<circle cx="33" cy="435.2" r="4.5"/>
	<ellipse cx="11.9" cy="435.3" rx="1.5" ry="1.6"/>
	<ellipse cx="31.5" cy="448.7" rx="3.1" ry="3"/>
	<ellipse cx="19.5" cy="427.7" rx="3.1" ry="3"/>
	<ellipse cx="41.9" cy="441.3" rx="1.5" ry="1.6"/>
</g>
</svg>
