<svg id="Capa_1" data-name="Capa 1" xmlns="http://www.w3.org/2000/svg" viewBox="0 0 276.17 271.22">
    <path d="M33.14,2.47a32.3,32.3,0,1,0,32.3,32.29A32.33,32.33,0,0,0,33.14,2.47Z" transform="translate(0 -2.47)"/>
    <path d="M137.66,2.47A32.3,32.3,0,1,0,170,34.76,32.33,32.33,0,0,0,137.66,2.47Z" transform="translate(0 -2.47)"/>
    <path d="M243.87,67.06a32.3,32.3,0,1,0-32.29-32.3A32.33,32.33,0,0,0,243.87,67.06Z" transform="translate(0 -2.47)"/>
    <path d="M32.3,170.54A32.3,32.3,0,1,0,0,138.25,32.33,32.33,0,0,0,32.3,170.54Z" transform="translate(0 -2.47)"/>
    <path d="M136.82,170.54a32.3,32.3,0,1,0-32.29-32.29A32.33,32.33,0,0,0,136.82,170.54Z" transform="translate(0 -2.47)"/>
    <path d="M243,170.54a32.3,32.3,0,1,0-32.31-32.29A32.32,32.32,0,0,0,243,170.54Z" transform="translate(0 -2.47)"/>
    <path d="M33,209.11A32.3,32.3,0,1,0,65.33,241.4,32.33,32.33,0,0,0,33,209.11Z" transform="translate(0 -2.47)"/>
    <path d="M137.56,209.11a32.3,32.3,0,1,0,32.3,32.29A32.33,32.33,0,0,0,137.56,209.11Z" transform="translate(0 -2.47)"/>
    <path d="M243.77,209.11a32.3,32.3,0,1,0,32.3,32.29A32.33,32.33,0,0,0,243.77,209.11Z" transform="translate(0 -2.47)"/>
</svg>