<svg id="Capa_1" data-name="Capa 1" xmlns="http://www.w3.org/2000/svg" viewBox="0 0 60.12 45.26">
    <path d="M57.12,51.89H16.92a3,3,0,1,1,0-6h40.2a3,3,0,0,1,0,6Z" transform="translate(0 -7.43)"/>
    <path d="M57.12,33.06H16.92a3,3,0,0,1,0-6h40.2a3,3,0,0,1,0,6Z" transform="translate(0 -7.43)"/>
    <path d="M57.12,14.23H16.92a3,3,0,0,1,0-6h40.2a3,3,0,0,1,0,6Z" transform="translate(0 -7.43)"/>
    <circle cx="4.03" cy="4.03" r="4.03"/><circle cx="4.03" cy="22.63" r="4.03"/><circle cx="4.03" cy="41.23" r="4.03"/>
</svg>