<svg height="512pt" viewBox="-76 0 512 512" width="512pt" xmlns="http://www.w3.org/2000/svg">
    <path d="m180 0c-103.382812 0-180 93.4375-180 199 0 101.390625 67.222656 180.5625 149.089844 196.097656l-43.980469 87.957032c-6.632813 13.273437 3.027344 28.945312 17.890625 28.945312h114c14.839844 0 24.535156-15.648438 17.890625-28.945312l-43.980469-87.957032c81.738282-15.511718 149.089844-94.625 149.089844-196.097656 0-105.972656-76.988281-199-180-199zm-24.640625 472 24.640625-49.277344 24.640625 49.277344zm24.640625-114c-77.195312 0-140-71.328125-140-159s62.804688-159 140-159 140 71.328125 140 159-62.804688 159-140 159zm0 0"/>
</svg>